<svg xmlns="http://www.w3.org/2000/svg" viewBox="0 0 1920 892.24"><defs><style>.cls-1,.cls-3{fill:#d8031d;}.cls-2{fill:none;stroke:#d8031d;stroke-miterlimit:10;stroke-width:2px;}.cls-3{font-size:24.49px;}</style></defs><g id="Layer_2" data-name="Layer 2"><g id="Layer_2-2" data-name="Layer 2"><path class="cls-1" d="M0,740.24l224-65,250-33,281,32,293-73,197-24a52.67,52.67,0,0,0,21-13c10-10,91-86,91-86s12-14,37-20,82-25,82-25,18,0,37-32,65-107,65-107,11-31,37-40,109-42,109-42,26-4,40-32,53-105,53-105,7-27,35-37,68-24,68-24v878H1Z"/><line class="cls-2" x1="1049.5" y1="601.74" x2="1049.5" y2="562.74"/><line class="cls-2" x1="1572.5" y1="301.74" x2="1572.5" y2="262.74"/><line class="cls-2" x1="1821.5" y1="71.74" x2="1821.5" y2="28.74"/><line class="cls-2" x1="185.5" y1="688.74" x2="185.5" y2="649.74"/><text class="cls-3" transform="translate(162.98 642.54)">12%</text><text class="cls-3" transform="translate(1029.53 555.73)">21%</text><text class="cls-3" transform="translate(1550.06 254.68)">53%</text><text class="cls-3" transform="translate(1796.15 20.5)">88%</text></g></g></svg>