<?xml version="1.0" encoding="utf-8"?>
<!-- Generator: Adobe Illustrator 24.1.0, SVG Export Plug-In . SVG Version: 6.00 Build 0)  -->
<svg version="1.1" id="Layer_1" xmlns="http://www.w3.org/2000/svg" xmlns:xlink="http://www.w3.org/1999/xlink" x="0px" y="0px"
	 viewBox="0 0 40 40" style="enable-background:new 0 0 40 40;" xml:space="preserve">
<style type="text/css">
	.st0{clip-path:url(#SVGID_2_);}
	.st1{fill:#D8031D;}
</style>
<g>
	<defs>
		<rect id="SVGID_1_" width="40" height="40"/>
	</defs>
	<clipPath id="SVGID_2_">
		<use xlink:href="#SVGID_1_"  style="overflow:visible;"/>
	</clipPath>
	<g class="st0">
		<path class="st1" d="M20,20C9,20,0,11,0,0C11,0,20,9,20,20z"/>
		<path class="st1" d="M40,40c-11,0-20-9-20-20C31.1,20,40,29,40,40z"/>
		<path class="st1" d="M20,20C20,9,28.9,0,40,0C40,11,31.1,20,20,20z"/>
		<path class="st1" d="M0,40c0-11,9-20,20-20C20,31.1,11,40,0,40z"/>
	</g>
</g>
</svg>
