<svg width="13" height="9" viewBox="0 0 13 9" fill="none" xmlns="http://www.w3.org/2000/svg">
<path d="M4.72566 7.01136L2.11671 4.40241C1.99187 4.27761 1.82257 4.2075 1.64605 4.2075C1.46952 4.2075 1.30022 4.27761 1.17538 4.40241C1.05058 4.52726 0.980469 4.69655 0.980469 4.87308C0.980469 5.0496 1.05058 5.2189 1.17538 5.34374L3.78433 7.95269C3.90798 8.07638 4.05478 8.1745 4.21635 8.24145C4.37792 8.30839 4.5511 8.34285 4.72599 8.34285C4.90089 8.34285 5.07407 8.30839 5.23564 8.24145C5.39721 8.1745 5.54401 8.07638 5.66765 7.95269L11.8269 1.79347C11.9517 1.66862 12.0218 1.49933 12.0218 1.3228C12.0218 1.14628 11.9517 0.97698 11.8269 0.85214V0.85214C11.702 0.727337 11.5327 0.657227 11.3562 0.657227C11.1797 0.657227 11.0104 0.727337 10.8856 0.85214L4.72566 7.01136Z" fill="#374957"/>
</svg>
